<svg xmlns="http://www.w3.org/2000/svg" xmlns:xlink="http://www.w3.org/1999/xlink" preserveAspectRatio="xMidYMid meet" version="1.0" viewBox="2.0 2.0 20.0 20.0" zoomAndPan="magnify" style="fill: rgb(27, 54, 93);" original_string_length="900" width="36.38044529860047px" height="36.38044529860047px"><g id="__id0_sykwzur3kq"><path d="m22,13v6c0,1.6543-1.3457,3-3,3H5c-1.6543,0-3-1.3457-3-3V5c0-1.6543,1.3457-3,3-3h6c.55273,0,1,.44727,1,1s-.44727,1-1,1h-6c-.55176,0-1,.44824-1,1v14c0,.55176.44824,1,1,1h14c.55176,0,1-.44824,1-1v-6c0-.55273.44727-1,1-1s1,.44727,1,1Zm-1-11h-6c-.55273,0-1,.44727-1,1s.44727,1,1,1h3.58594l-7.29297,7.29297c-.39062.39062-.39062,1.02344,0,1.41406.19531.19531.45117.29297.70703.29297s.51172-.09766.70703-.29297l7.29297-7.29297v3.58594c0,.55273.44727,1,1,1s1-.44727,1-1V3c0-.55273-.44727-1-1-1Z" style="fill: inherit;"/></g></svg>